<?xml version="1.0" standalone="no"?>
<!DOCTYPE svg PUBLIC "-//W3C//DTD SVG 20010904//EN"
 "http://www.w3.org/TR/2001/REC-SVG-20010904/DTD/svg10.dtd">
<svg version="1.0" xmlns="http://www.w3.org/2000/svg"
 width="50.000000pt" height="50.000000pt" viewBox="0 0 50.000000 50.000000"
 preserveAspectRatio="xMidYMid meet">

<g transform="translate(0.000000,50.000000) scale(0.100000,-0.100000)"
fill="#855fbd" stroke="none">
<path d="M395 451 c-16 -10 -98 -88 -181 -172 -110 -112 -155 -165 -164 -192
-6 -21 -10 -41 -7 -44 3 -3 23 1 44 7 59 19 383 344 383 384 0 7 -31 36 -38
36 -4 0 -20 -9 -37 -19z m18 -83 c-16 -18 -17 -18 -40 4 -22 20 -22 23 -6 40
16 18 17 18 40 -4 22 -20 22 -23 6 -40z m-299 -274 c4 -9 -4 -19 -19 -26 -32
-14 -41 -5 -27 27 12 26 36 25 46 -1z"/>
</g>
</svg>
