<svg xmlns="http://www.w3.org/2000/svg" xmlns:xlink="http://www.w3.org/1999/xlink" viewBox="0,0,256,256" width="24px" height="24px" fill-rule="nonzero"><g fill="#855fbd" fill-rule="nonzero" stroke="none" stroke-width="1" stroke-linecap="butt" stroke-linejoin="miter" stroke-miterlimit="10" stroke-dasharray="" stroke-dashoffset="0" font-family="none" font-weight="none" font-size="none" text-anchor="none" style="mix-blend-mode: normal"><g transform="scale(10.66667,10.66667)"><path d="M9.5,1c-2.47344,0 -4.5,2.02656 -4.5,4.5c0,1.44265 0.73344,2.67483 1.79883,3.5c-1.06538,0.82517 -1.79883,2.05735 -1.79883,3.5c0,1.44265 0.73344,2.67483 1.79883,3.5c-1.06538,0.82517 -1.79883,2.05735 -1.79883,3.5c0,2.47344 2.02656,4.5 4.5,4.5c2.47344,0 4.5,-2.02656 4.5,-4.5v-3.5v-6h2.5c2.47344,0 4.5,-2.02656 4.5,-4.5c0,-2.47344 -2.02656,-4.5 -4.5,-4.5h-3.5zM9.5,3h2.5v5h-2.5c-1.39256,0 -2.5,-1.10744 -2.5,-2.5c0,-1.39256 1.10744,-2.5 2.5,-2.5zM14,3h2.5c1.39256,0 2.5,1.10744 2.5,2.5c0,1.39256 -1.10744,2.5 -2.5,2.5h-2.5zM9.5,10h2.5v5h-2.5c-1.39256,0 -2.5,-1.10744 -2.5,-2.5c0,-1.39256 1.10744,-2.5 2.5,-2.5zM17,10c-1.65685,0 -3,1.34315 -3,3c0,1.65685 1.34315,3 3,3c1.65685,0 3,-1.34315 3,-3c0,-1.65685 -1.34315,-3 -3,-3zM9.5,17h2.5v2.5c0,1.39256 -1.10744,2.5 -2.5,2.5c-1.39256,0 -2.5,-1.10744 -2.5,-2.5c0,-1.39256 1.10744,-2.5 2.5,-2.5z"></path></g></g></svg>