<?xml version="1.0" standalone="no"?>
<!DOCTYPE svg PUBLIC "-//W3C//DTD SVG 20010904//EN"
 "http://www.w3.org/TR/2001/REC-SVG-20010904/DTD/svg10.dtd">
<svg version="1.0" xmlns="http://www.w3.org/2000/svg"
 width="50.000000pt" height="50.000000pt" viewBox="0 0 50.000000 50.000000"
 preserveAspectRatio="xMidYMid meet">

<g transform="translate(0.000000,50.000000) scale(0.100000,-0.100000)"
fill="#855fbd" stroke="none">
<path d="M212 485 c-35 -15 -67 -71 -56 -99 9 -24 95 -40 142 -25 49 14 56 29
37 75 -10 23 -26 39 -49 49 -41 18 -33 18 -74 0z"/>
<path d="M26 353 c-3 -3 -6 -19 -6 -35 0 -20 5 -28 18 -28 28 0 42 -20 42 -60
0 -40 -14 -60 -43 -60 -16 0 -18 -7 -15 -52 l3 -53 62 -7 c34 -4 83 -16 108
-27 l46 -20 -3 157 -3 156 -40 12 c-51 14 -160 25 -169 17z"/>
<path d="M375 350 c-33 -5 -72 -13 -87 -19 l-28 -11 0 -154 0 -155 45 20 c25
11 74 23 108 27 l62 7 3 53 c3 45 1 52 -15 52 -29 0 -43 20 -43 60 0 40 14 60
43 60 15 0 18 6 15 33 -3 37 -11 39 -103 27z"/>
<path d="M4 256 c-11 -28 0 -61 20 -61 27 0 44 30 30 53 -15 22 -43 27 -50 8z"/>
<path d="M452 258 c-27 -27 0 -77 34 -64 10 4 14 16 12 38 -3 35 -25 47 -46
26z"/>
</g>
</svg>
