<?xml version="1.0" standalone="no"?>
<!DOCTYPE svg PUBLIC "-//W3C//DTD SVG 20010904//EN"
 "http://www.w3.org/TR/2001/REC-SVG-20010904/DTD/svg10.dtd">
<svg version="1.0" xmlns="http://www.w3.org/2000/svg"
 width="50.000000pt" height="50.000000pt" viewBox="0 0 50.000000 50.000000"
 preserveAspectRatio="xMidYMid meet">

<g transform="translate(0.000000,50.000000) scale(0.100000,-0.100000)"
fill="#855fbd" stroke="none">
<path d="M225 493 c-88 -20 -134 -52 -164 -112 -41 -81 -33 -182 19 -265 67
-104 208 -146 274 -80 29 30 37 65 23 111 -11 34 -10 36 35 78 65 60 78 109
46 173 -17 35 -34 52 -68 69 -45 22 -128 35 -165 26z m71 -77 c9 -38 -4 -66
-31 -66 -27 0 -40 28 -31 66 9 34 53 34 62 0z m-110 -50 c9 -38 -4 -66 -31
-66 -27 0 -40 28 -31 66 9 34 53 34 62 0z m220 0 c9 -38 -4 -66 -31 -66 -27 0
-40 28 -31 66 9 34 53 34 62 0z m-230 -130 c9 -38 -4 -66 -31 -66 -27 0 -40
28 -31 66 5 17 13 24 31 24 18 0 26 -7 31 -24z m129 -126 c0 -33 -2 -35 -35
-35 -29 0 -36 4 -38 23 -6 40 5 54 40 50 30 -3 33 -6 33 -38z"/>
</g>
</svg>
